<?xml version="1.0" encoding="utf-8"?>
<svg xmlns="http://www.w3.org/2000/svg" viewBox="0 0 500 500">
  <g transform="matrix(1, 0, 0, 1, -0.000015, 0)">
    <text style="fill: rgb(51, 51, 51); font-family: Arial, sans-serif; font-size: 100px; white-space: pre; stroke-width: 1;" x="93.248" y="477.911">Trendy</text>
    <g transform="matrix(0.04732, 0, 0, -0.04732, 7.724472, 469.958221)" fill="#000000" stroke="none" style="">
      <path d="M2695 6784 c-421 -21 -763 -70 -1230 -175 -284 -64 -317 -74 -355 -105 -57 -48 -60 -63 -60 -286 0 -112 5 -220 10 -240 13 -46 52 -93 94 -114 44 -23 94 -73 117 -116 20 -40 29 -89 59 -343 53 -441 124 -725 240 -954 197 -392 531 -612 1055 -696 155 -25 511 -31 665 -11 226 30 393 81 581 177 148 77 259 161 386 292 163 170 304 405 386 642 71 206 140 562 153 785 5 73 11 110 22 123 19 21 154 64 238 75 123 16 314 -17 360 -63 21 -21 24 -33 24 -99 0 -208 87 -631 176 -858 214 -543 592 -895 1099 -1022 188 -46 304 -60 535 -60 288 -1 461 22 671 90 339 109 584 317 741 629 107 211 173 474 247 982 28 188 46 283 60 310 20 41 75 93 132 128 19 11 45 40 58 65 24 43 25 54 29 256 4 198 3 213 -17 251 -22 44 -54 74 -98 92 -45 17 -446 108 -626 140 -475 86 -906 119 -1317 100 -583 -26 -939 -106 -1289 -291 -75 -39 -158 -83 -186 -97 l-50 -26 -475 -1 c-322 -1 -485 3 -505 10 -17 6 -90 44 -163 85 -326 180 -654 271 -1132 311 -127 11 -526 20 -635 14z"/>
    </g>
  </g>
</svg>