<?xml version="1.0" standalone="no"?>
<!DOCTYPE svg PUBLIC "-//W3C//DTD SVG 20010904//EN"
 "http://www.w3.org/TR/2001/REC-SVG-20010904/DTD/svg10.dtd">
<svg version="1.0" xmlns="http://www.w3.org/2000/svg"
 width="1024.000000pt" height="1024.000000pt" viewBox="0 0 1024.000000 1024.000000"
 preserveAspectRatio="xMidYMid meet">

<g transform="translate(0.000000,1024.000000) scale(0.100000,-0.100000)"
fill="#000000" stroke="none">
<path d="M4085 9436 c-80 -19 -145 -57 -212 -122 -74 -72 -127 -174 -143 -274
-13 -85 -13 -612 1 -720 14 -116 54 -196 138 -281 118 -118 208 -149 438 -149
l153 0 0 -56 c0 -69 29 -127 76 -149 20 -9 60 -15 107 -15 l74 0 5 -112 c3
-62 8 -120 12 -129 6 -14 -8 -18 -101 -28 -644 -73 -1339 -432 -1834 -948
-442 -462 -739 -1027 -858 -1634 -46 -234 -58 -351 -60 -589 -7 -752 233
-1456 699 -2050 97 -124 390 -418 508 -510 423 -330 809 -519 1297 -635 581
-139 1192 -109 1770 88 486 165 885 415 1261 791 289 290 498 594 663 969 418
944 366 2033 -140 2914 -421 735 -1070 1256 -1859 1492 -121 36 -410 99 -531
116 l-47 6 9 37 c5 20 9 79 9 130 l0 92 73 0 c126 0 178 44 185 155 l4 65 152
0 c104 0 170 5 211 15 176 46 314 184 360 360 22 86 22 723 0 810 -24 94 -65
164 -135 236 -71 72 -143 113 -229 129 -82 15 -1991 12 -2056 -4z m1955 -365
c30 -6 53 -19 73 -41 l28 -31 -3 -329 -3 -330 -28 -27 c-27 -28 -30 -28 -177
-33 l-150 -5 0 40 c0 47 -33 109 -73 139 -28 21 -36 21 -587 21 -551 0 -559 0
-587 -21 -42 -31 -73 -92 -73 -143 l0 -44 -132 5 c-153 5 -191 18 -214 73 -22
53 -20 614 2 661 20 41 35 54 77 64 44 11 1791 11 1847 1z m-580 -2096 c447
-56 849 -200 1205 -433 446 -291 806 -721 1019 -1213 237 -549 296 -1122 176
-1709 -52 -252 -123 -458 -241 -693 -251 -501 -636 -907 -1114 -1176 -116 -65
-148 -81 -282 -142 -93 -42 -275 -105 -400 -139 -480 -129 -1018 -120 -1499
25 -1061 320 -1819 1204 -1980 2310 -23 153 -26 569 -5 725 62 484 251 962
530 1338 468 630 1154 1021 1951 1111 132 15 505 12 640 -4z"/>
<path d="M5061 6704 c-43 -31 -51 -70 -51 -261 0 -186 8 -239 39 -267 26 -23
84 -31 121 -16 58 24 65 53 65 270 0 215 -7 250 -56 275 -37 20 -89 19 -118
-1z"/>
<path d="M3813 6300 c-31 -13 -46 -47 -40 -92 8 -57 138 -262 176 -278 65 -27
123 14 125 88 0 31 -13 61 -72 155 -41 64 -82 122 -92 127 -22 12 -67 12 -97
0z"/>
<path d="M6313 6278 c-38 -41 -153 -240 -153 -265 0 -38 26 -79 60 -93 55 -23
86 2 168 132 83 131 92 174 47 222 -32 34 -92 36 -122 4z"/>
<path d="M6844 5594 c-28 -15 -123 -79 -210 -143 -169 -125 -715 -530 -1077
-800 l-218 -162 -54 27 c-41 20 -75 27 -137 31 -73 4 -91 2 -153 -22 -38 -15
-77 -27 -85 -28 -8 0 -161 103 -340 229 -478 338 -684 480 -729 503 -96 49
-171 6 -171 -97 0 -40 31 -94 79 -137 12 -11 244 -178 514 -370 l491 -350 1
-90 c0 -81 3 -97 33 -157 66 -135 187 -211 338 -212 73 -1 86 2 156 37 134 66
201 170 202 312 1 44 -2 94 -6 110 -6 30 -1 34 737 587 600 451 749 567 774
605 80 120 -7 196 -145 127z m-1649 -1340 c45 -49 29 -132 -32 -163 -96 -49
-188 75 -117 158 22 27 32 31 75 31 41 0 54 -5 74 -26z"/>
<path d="M2964 5428 c-50 -24 -57 -93 -15 -140 45 -51 242 -160 292 -162 68
-1 109 66 78 127 -16 31 -39 48 -160 122 -110 67 -147 77 -195 53z"/>
<path d="M7155 5417 c-55 -32 -187 -127 -203 -146 -43 -53 -33 -116 22 -146
43 -23 78 -12 182 61 142 98 169 135 144 195 -13 31 -55 59 -87 59 -10 0 -36
-11 -58 -23z"/>
<path d="M2690 4290 c-46 -11 -90 -61 -90 -103 0 -36 30 -91 58 -106 10 -5 99
-12 197 -15 202 -6 231 1 265 56 24 40 25 69 4 109 -27 53 -72 65 -246 66 -84
0 -169 -3 -188 -7z"/>
<path d="M7180 4263 c-8 -3 -27 -17 -42 -31 -22 -21 -28 -35 -28 -70 0 -36 5
-49 31 -73 l31 -29 185 0 c144 0 190 3 213 15 66 34 81 111 31 164 l-29 31
-189 -1 c-103 0 -195 -3 -203 -6z"/>
<path d="M3103 3150 c-121 -77 -147 -105 -147 -164 -1 -52 33 -80 89 -73 43 5
204 100 263 155 63 60 30 152 -56 152 -31 0 -61 -14 -149 -70z"/>
<path d="M6928 3201 c-53 -42 -43 -114 24 -164 18 -14 73 -48 123 -76 108 -62
160 -68 194 -25 29 36 27 85 -4 122 -34 40 -227 153 -273 159 -28 4 -44 0 -64
-16z"/>
<path d="M3969 2425 c-26 -14 -135 -179 -163 -247 -25 -59 14 -128 73 -128 46
0 84 34 137 121 28 46 59 98 68 116 49 96 -26 186 -115 138z"/>
<path d="M6193 2430 c-37 -15 -56 -55 -51 -103 5 -45 108 -224 157 -273 54
-55 151 -4 151 80 0 23 -126 243 -159 278 -20 22 -69 31 -98 18z"/>
<path d="M5062 2224 c-44 -31 -50 -59 -52 -249 -3 -248 -5 -232 34 -271 29
-29 41 -34 79 -34 34 0 53 6 74 24 l28 24 3 204 c4 222 -3 265 -45 297 -31 25
-89 27 -121 5z"/>
</g>
</svg>
