<?xml version="1.0" encoding="utf-8"?>
<svg xmlns="http://www.w3.org/2000/svg" viewBox="0 0 500 500">
  <g transform="matrix(1, 0, 0, 1, 0.002007, 0)">
    <g transform="matrix(0.044936, 0, 0, -0.044936, 19.906916, 430.855743)" fill="#000000" stroke="none" style="">
      <path d="M1938 8996 c-86 -31 -138 -93 -146 -175 -8 -90 41 -175 123 -212 38 -18 165 -19 3195 -19 2171 0 3167 3 3193 11 43 12 101 59 122 99 22 43 28 102 15 150 -16 61 -90 133 -153 148 -72 19 -6298 16 -6349 -2z"/>
      <path d="M2107 8324 c-286 -52 -543 -220 -702 -459 -281 -422 -230 -965 125 -1339 279 -293 645 -406 1015 -312 191 49 358 149 498 296 100 106 169 218 213 347 40 118 54 199 54 313 0 75 -25 234 -45 283 -7 16 85 17 1854 17 1024 0 1861 -2 1861 -5 0 -3 -10 -40 -22 -82 -19 -67 -23 -101 -22 -233 1 -139 3 -164 28 -245 52 -174 117 -284 245 -417 127 -133 289 -228 479 -280 64 -18 106 -21 242 -22 148 0 175 3 264 27 247 67 489 241 636 457 246 363 249 833 6 1198 -162 243 -423 409 -721 457 -133 22 -5889 21 -6008 -1z m383 -473 c184 -63 332 -212 391 -392 20 -63 24 -93 24 -199 -1 -104 -5 -136 -24 -190 -66 -187 -218 -334 -406 -393 -91 -28 -251 -30 -339 -3 -245 73 -410 267 -446 523 -42 304 176 607 485 673 72 16 243 5 315 -19z m5599 14 c102 -24 196 -79 282 -165 41 -41 87 -96 101 -122 117 -211 107 -457 -24 -653 -62 -94 -132 -156 -233 -206 -189 -93 -394 -88 -575 14 -76 42 -198 168 -238 244 -188 358 7 793 398 888 75 18 211 18 289 0z"/>
      <path d="M2181 7625 c-56 -18 -138 -74 -174 -120 -16 -20 -40 -61 -55 -93 -23 -48 -27 -71 -27 -147 0 -82 3 -97 32 -156 143 -290 538 -290 677 1 28 59 31 74 31 160 -1 84 -4 102 -30 155 -37 76 -109 149 -183 183 -69 32 -199 41 -271 17z"/>
      <path d="M7808 7617 c-101 -43 -173 -116 -215 -218 -13 -32 -18 -70 -18 -139 0 -86 3 -101 30 -154 38 -76 108 -146 182 -183 51 -25 69 -28 153 -28 82 0 103 4 151 26 245 115 302 426 112 613 -73 72 -139 100 -247 103 -78 3 -99 0 -148 -20z"/>
      <path d="M3646 7092 c-16 -229 -96 -456 -224 -637 -57 -82 -183 -209 -241 -245 l-40 -25 -1 -2376 c0 -2690 -9 -2432 84 -2524 78 -78 169 -101 273 -70 69 20 133 72 168 136 l30 54 5 2250 5 2250 23 43 c90 169 307 213 446 91 26 -23 57 -60 69 -83 l22 -41 5 -2250 5 -2250 23 -47 c13 -26 45 -67 72 -92 110 -103 267 -100 375 7 94 94 85 -145 85 2362 0 2516 -9 2278 88 2375 44 43 70 60 116 74 139 44 289 -22 350 -153 l21 -46 5 -2250 5 -2250 22 -41 c53 -98 171 -163 277 -150 101 12 179 66 229 160 l22 41 5 2250 5 2250 25 48 c27 55 70 96 133 129 62 33 184 32 250 -2 58 -29 112 -86 141 -149 l21 -46 2 -2229 c2 -1652 6 -2239 14 -2265 27 -83 100 -152 188 -177 132 -39 275 28 335 156 24 52 23 -178 19 3000 l-3 1816 -29 17 c-51 30 -179 157 -239 235 -139 186 -232 455 -232 674 l0 68 -1474 2 -1473 3 -7 -93z"/>
      <path d="M3947 5842 c-16 -17 -17 -186 -17 -2230 0 -1996 2 -2212 16 -2226 18 -19 55 -21 72 -4 17 17 17 4449 0 4466 -18 18 -53 15 -71 -6z"/>
      <path d="M5082 5848 c-17 -17 -17 -4449 0 -4466 19 -19 66 -15 78 7 7 14 10 725 10 2230 0 1995 -2 2211 -16 2225 -18 19 -55 21 -72 4z"/>
      <path d="M6217 5842 c-16 -17 -17 -186 -17 -2230 0 -1996 2 -2212 16 -2226 19 -20 58 -21 73 -2 16 19 16 4443 0 4463 -16 19 -53 16 -72 -5z"/>
    </g>
    <text style="fill: rgb(51, 51, 51); font-family: Arial, sans-serif; font-size: 100px; white-space: pre; stroke-width: 1;" x="49.958" y="478.686">Classical</text>
  </g>
</svg>