<?xml version="1.0" standalone="no"?>
<!DOCTYPE svg PUBLIC "-//W3C//DTD SVG 20010904//EN"
 "http://www.w3.org/TR/2001/REC-SVG-20010904/DTD/svg10.dtd">
<svg version="1.0" xmlns="http://www.w3.org/2000/svg"
 width="1024.000000pt" height="1024.000000pt" viewBox="0 0 1024.000000 1024.000000"
 preserveAspectRatio="xMidYMid meet">

<g transform="translate(0.000000,1024.000000) scale(0.100000,-0.100000)"
fill="#000000" stroke="none">
<path d="M2756 9456 c-94 -62 -225 -176 -300 -260 -214 -241 -349 -530 -401
-863 -14 -87 -14 -402 -1 -468 45 -221 89 -362 161 -510 64 -132 130 -236 214
-333 34 -40 59 -72 55 -72 -19 0 -150 78 -224 134 -156 117 -290 278 -391 469
-107 204 -161 413 -175 677 -4 63 -7 116 -8 117 0 1 -25 -52 -54 -118 -51
-117 -105 -286 -117 -371 -4 -24 -8 -45 -10 -48 -9 -15 -20 -190 -19 -315 3
-479 258 -969 690 -1326 124 -101 349 -238 434 -263 50 -15 -3 -18 -94 -7
-156 21 -349 82 -506 161 -216 109 -448 301 -577 476 -58 80 -62 71 -38 -84
39 -250 157 -517 317 -719 89 -111 112 -136 213 -223 257 -221 577 -375 955
-459 138 -31 335 -61 403 -61 77 0 31 -24 -88 -45 -119 -21 -404 -28 -519 -12
-172 24 -393 99 -541 185 -38 23 -71 39 -73 37 -8 -8 76 -150 138 -232 213
-284 543 -500 898 -589 174 -44 272 -52 622 -53 179 0 359 -5 400 -11 238 -34
413 -112 500 -222 56 -70 64 -102 57 -237 -10 -193 -46 -334 -221 -846 -121
-356 -146 -463 -146 -627 0 -130 15 -210 60 -326 50 -130 116 -220 280 -383
193 -191 252 -279 301 -443 l23 -79 19 54 c47 135 60 328 31 467 -9 42 -44
155 -79 252 -62 174 -108 340 -120 434 -3 27 -8 53 -11 58 -3 5 -7 125 -8 268
-3 253 4 330 19 193 11 -112 52 -287 90 -385 43 -109 70 -158 191 -343 134
-204 187 -302 224 -412 31 -90 34 -110 38 -255 7 -238 -33 -439 -122 -620 -24
-49 -40 -88 -36 -88 10 0 136 96 205 155 76 65 193 200 254 290 130 194 187
456 159 728 -16 156 -96 338 -255 583 -180 277 -255 464 -269 670 l-6 89 39
-68 c56 -98 95 -140 286 -306 276 -240 327 -293 423 -442 98 -151 143 -297
153 -494 l6 -130 36 55 c78 119 127 241 150 377 17 101 7 270 -21 351 -63 182
-142 291 -395 552 -193 198 -264 285 -320 392 -73 137 -95 240 -75 349 32 179
175 311 401 372 80 21 98 22 419 19 355 -3 526 7 675 39 465 99 871 388 1079
768 25 46 46 85 46 86 0 2 -36 -19 -81 -46 -138 -83 -335 -150 -544 -185 -138
-23 -386 -15 -545 16 -134 27 -131 29 65 55 672 86 1216 383 1514 826 137 204
234 471 256 709 l6 65 -23 -30 c-138 -181 -259 -296 -428 -408 -230 -152 -508
-255 -735 -272 l-80 -6 115 58 c379 191 682 497 869 878 108 219 156 405 167
645 13 272 -31 496 -150 775 l-51 120 -2 -70 c-8 -223 -48 -435 -114 -603
-118 -298 -347 -564 -603 -703 -79 -42 -91 -44 -55 -6 180 188 317 466 385
784 26 116 28 147 28 333 1 233 -12 322 -71 505 -87 270 -227 494 -421 675
-89 83 -266 219 -285 220 -4 0 8 -28 27 -62 85 -156 175 -438 212 -668 21
-132 24 -411 5 -535 -51 -341 -183 -647 -398 -923 -93 -120 -270 -292 -411
-401 -64 -50 -211 -154 -327 -232 -115 -77 -227 -157 -247 -177 -44 -42 -84
-116 -166 -307 -116 -271 -165 -367 -264 -522 l-40 -63 36 -118 c56 -188 69
-282 63 -457 -4 -108 -12 -171 -27 -225 -21 -72 -88 -226 -95 -218 -3 2 2 87
9 188 19 282 2 449 -67 660 -17 52 -94 221 -170 375 -155 312 -201 418 -216
502 -52 279 97 516 389 619 110 39 280 45 380 15 40 -12 75 -20 77 -17 10 10
-16 117 -39 164 -56 112 -194 203 -319 210 -66 4 -69 5 -94 43 -15 21 -50 54
-79 73 -113 78 -239 104 -571 116 -327 12 -471 39 -660 125 -94 43 -155 83
-217 143 l-47 45 -7 -27 c-13 -54 2 -178 28 -231 73 -148 154 -220 323 -285
33 -13 64 -26 68 -30 5 -4 -8 -29 -27 -55 -71 -92 -108 -172 -140 -300 -28
-113 -31 -157 -41 -718 l-8 -417 -38 52 c-21 29 -68 124 -105 210 -143 337
-200 403 -588 682 -83 59 -194 143 -246 184 -479 384 -752 855 -801 1384 -34
364 47 789 209 1103 27 52 46 95 43 95 -4 0 -37 -20 -75 -44z m2744 -2231 c0
-15 -14 -40 -32 -60 -32 -34 -34 -35 -73 -24 -54 15 -187 70 -182 76 12 11
141 32 210 32 76 1 77 1 77 -24z"/>
<path d="M4445 3843 c-34 -96 -95 -219 -146 -294 -21 -31 -95 -128 -165 -215
-194 -242 -253 -343 -293 -499 -24 -94 -27 -250 -6 -330 22 -84 84 -209 139
-279 l46 -59 1 79 c0 43 2 93 4 109 2 17 7 55 10 85 9 79 40 214 68 295 32 92
68 163 179 347 104 175 142 254 186 388 33 102 37 118 49 195 17 104 -4 255
-35 255 -5 0 -22 -35 -37 -77z"/>
</g>
</svg>
