<?xml version="1.0" encoding="utf-8"?>
<svg xmlns="http://www.w3.org/2000/svg" viewBox="0 0 500 500">
  <g>
    <text style="fill: rgb(51, 51, 51); font-family: Arial, sans-serif; font-size: 100px; white-space: pre; stroke-width: 1;" x="91.562" y="475.686">Unique</text>
    <g transform="matrix(0.047203, 0, 0, -0.047203, 4.981044, 452.479462)" fill="#000000" stroke="none" style="">
      <path d="M2483 9239 c-34 -22 -42 -42 -62 -150 -39 -218 -140 -363 -311 -448 -57 -28 -118 -48 -185 -62 -54 -10 -109 -26 -122 -34 -77 -51 -73 -168 6 -210 15 -7 45 -16 66 -20 192 -31 331 -101 416 -207 75 -96 149 -268 149 -348 0 -56 24 -99 65 -116 79 -32 144 -4 168 73 9 26 18 71 21 98 13 132 54 215 152 312 57 57 92 81 166 116 90 44 198 77 249 77 32 0 65 24 84 60 19 37 19 109 0 137 -23 33 -79 63 -117 63 -18 0 -61 7 -93 15 -253 64 -422 243 -455 483 -5 40 -16 88 -24 106 -30 72 -108 97 -173 55z m110 -604 c16 -24 65 -78 109 -120 44 -42 79 -77 77 -79 -2 -1 -24 -16 -49 -33 -55 -37 -145 -131 -154 -161 -10 -32 -21 -27 -55 22 -17 24 -67 77 -112 117 l-81 73 24 18 c95 74 152 127 175 164 16 24 30 44 33 44 3 0 18 -20 33 -45z"/>
      <path d="M8007 8499 c-29 -22 -39 -53 -58 -169 -16 -106 -42 -167 -94 -227 -52 -59 -149 -112 -250 -138 -76 -19 -105 -49 -105 -108 0 -24 7 -53 16 -66 19 -26 71 -51 107 -51 48 0 163 -68 220 -130 63 -68 88 -125 107 -245 15 -96 30 -130 70 -150 36 -19 63 -19 99 0 38 19 50 49 67 162 3 26 16 73 27 103 53 144 148 226 309 266 83 20 107 33 124 66 41 79 -17 158 -115 158 -53 0 -142 50 -212 120 -81 80 -122 162 -143 283 -9 47 -21 95 -28 106 -27 43 -99 54 -141 20z"/>
      <path d="M3173 7474 c-6 -3 -37 -36 -67 -74 -31 -38 -103 -121 -159 -183 -57 -63 -150 -177 -208 -253 -83 -112 -285 -362 -309 -384 -3 -3 -53 -61 -112 -130 -333 -391 -439 -513 -509 -587 -121 -126 -119 -150 28 -306 47 -51 102 -112 122 -137 80 -99 308 -369 531 -629 299 -349 559 -655 718 -846 69 -82 171 -201 226 -264 238 -269 274 -309 321 -366 27 -33 68 -80 90 -105 22 -25 61 -70 86 -100 144 -171 310 -365 369 -430 121 -134 218 -250 292 -349 40 -53 108 -134 153 -181 44 -47 125 -139 179 -203 104 -124 134 -147 189 -147 72 0 90 15 282 235 102 117 209 244 238 281 29 37 93 111 142 163 50 53 119 132 155 176 35 44 105 127 155 185 49 57 100 116 111 130 23 27 738 864 962 1125 75 88 242 284 371 435 129 151 289 338 356 415 67 77 132 153 146 169 13 17 40 48 60 70 19 23 86 102 149 176 63 74 116 137 119 140 20 17 102 121 120 150 25 42 27 92 3 141 -19 39 -259 338 -387 482 -192 216 -800 930 -928 1090 -39 49 -83 95 -98 103 -24 12 -298 14 -1956 13 -1060 0 -1933 -3 -1940 -5z m1607 -320 c0 -3 -32 -54 -72 -112 -72 -107 -109 -158 -459 -642 -102 -140 -209 -290 -239 -332 -29 -43 -57 -78 -61 -78 -4 0 -12 15 -19 33 -77 218 -221 638 -295 860 l-93 277 619 0 c341 0 619 -3 619 -6z m1945 -11 c-4 -10 -31 -83 -60 -163 -103 -283 -348 -935 -359 -957 -11 -21 -17 -15 -111 110 -212 282 -503 686 -648 900 l-86 127 635 0 c602 0 636 -1 629 -17z m-1508 -193 c42 -58 149 -206 237 -330 88 -124 228 -314 310 -423 83 -109 165 -222 183 -250 18 -29 37 -60 43 -69 10 -17 -34 -18 -870 -18 -721 0 -880 2 -873 13 8 14 54 77 295 407 195 268 559 782 566 799 4 12 8 11 19 -5 8 -10 48 -66 90 -124z m-1953 72 c10 -31 84 -241 163 -467 164 -462 238 -683 231 -690 -3 -3 -327 -4 -720 -3 l-715 3 156 186 c86 103 291 347 456 543 165 197 323 386 350 421 28 35 52 64 55 64 3 1 13 -25 24 -57z m3785 6 c27 -31 244 -294 395 -479 39 -47 159 -191 267 -320 108 -129 220 -263 248 -299 l52 -65 -712 -3 c-392 -1 -714 -1 -715 1 -3 3 118 349 205 587 85 234 226 610 229 610 1 0 15 -15 31 -32z m-3241 -1560 c63 -194 456 -1351 596 -1754 132 -382 361 -1093 354 -1100 -2 -1 -31 32 -66 74 -34 42 -78 95 -98 117 -20 22 -55 62 -78 89 -22 27 -48 57 -56 66 -8 9 -42 47 -75 85 -33 39 -62 72 -65 75 -3 3 -41 47 -85 99 -44 52 -143 167 -220 256 -176 204 -408 473 -460 536 -209 249 -662 784 -779 919 -12 14 -109 129 -216 255 -106 127 -220 260 -252 296 -32 36 -58 69 -58 72 0 4 344 7 764 7 l764 0 30 -92z m2332 82 c0 -25 -250 -777 -368 -1110 -44 -124 -105 -299 -136 -390 -31 -91 -101 -298 -157 -460 -105 -308 -184 -549 -290 -883 -49 -155 -65 -195 -75 -185 -10 11 -88 245 -174 523 -71 227 -398 1206 -674 2018 -91 269 -166 490 -166 493 0 2 459 4 1020 4 697 0 1020 -3 1020 -10z m1834 -27 c-35 -47 -315 -382 -499 -598 -75 -88 -201 -236 -280 -330 -78 -93 -241 -285 -360 -425 -191 -224 -307 -360 -630 -735 -42 -49 -120 -142 -173 -205 -54 -63 -187 -219 -297 -346 -110 -127 -219 -253 -242 -280 l-42 -49 35 115 c51 164 126 388 252 750 155 445 566 1652 652 1918 l73 222 770 0 769 0 -28 -37z"/>
      <path d="M7731 3343 c-41 -20 -70 -79 -71 -140 0 -52 -37 -155 -81 -229 -91 -150 -297 -285 -456 -300 -32 -3 -70 -10 -85 -16 -79 -30 -85 -173 -9 -212 16 -9 61 -20 100 -26 273 -39 482 -249 520 -524 12 -88 20 -106 57 -135 34 -27 98 -28 141 -1 24 14 34 29 38 57 31 186 86 304 190 408 101 101 236 164 415 191 32 5 55 17 78 40 27 27 32 39 32 82 0 35 -6 57 -21 76 -29 36 -43 42 -155 67 -300 64 -498 264 -529 534 -9 76 -29 111 -77 130 -47 18 -45 18 -87 -2z m120 -649 c46 -47 103 -97 126 -112 24 -15 43 -30 43 -33 0 -4 -18 -19 -40 -34 -41 -28 -149 -138 -185 -188 l-20 -27 -48 65 c-27 36 -75 91 -107 122 l-58 57 93 98 c51 53 96 106 100 117 3 12 8 21 9 21 2 0 41 -38 87 -86z"/>
    </g>
  </g>
</svg>